<mxfile host="app.diagrams.net" modified="2024-04-19T23:56:12.894Z" agent="Mozilla/5.0 (Windows NT 10.0; Win64; x64) AppleWebKit/537.36 (KHTML, like Gecko) Chrome/120.0.0.0 Safari/537.36 Edg/120.0.0.0" version="24.2.5" etag="tkm1WakKjRQII8GrnECt" type="github">
  <diagram name="Page-1" id="k8sFk0txAlxOJYZ6Q_cB">
    <mxGraphModel>
      <root>
        <mxCell id="0" />
        <mxCell id="1" parent="0" />
      </root>
    </mxGraphModel>
  </diagram>
</mxfile>
